<svg width="14" height="15" viewBox="0 0 14 15" fill="none" xmlns="http://www.w3.org/2000/svg">
<path d="M4.36328 11.2042L6.17161 12.6042C6.40495 12.8375 6.92995 12.9542 7.27995 12.9542H9.49662C10.1966 12.9542 10.9549 12.4292 11.1299 11.7292L12.5299 7.47086C12.8216 6.65419 12.2966 5.95419 11.4216 5.95419H9.08828C8.73828 5.95419 8.44661 5.66252 8.50495 5.25419L8.79661 3.38752C8.91328 2.86252 8.56328 2.27919 8.03828 2.10419C7.57161 1.92919 6.98828 2.16252 6.75495 2.51252L4.36328 6.07086" stroke="#4F4F4F" stroke-miterlimit="10"/>
<path d="M1.38831 11.2042V5.48748C1.38831 4.67082 1.73831 4.37915 2.55497 4.37915H3.13831C3.95497 4.37915 4.30497 4.67082 4.30497 5.48748V11.2042C4.30497 12.0208 3.95497 12.3125 3.13831 12.3125H2.55497C1.73831 12.3125 1.38831 12.0208 1.38831 11.2042Z" stroke="#4F4F4F" stroke-linecap="round" stroke-linejoin="round"/>
</svg>
