<svg width="113" height="19" viewBox="0 0 113 19" fill="none" xmlns="http://www.w3.org/2000/svg">
<path d="M0.996 14H4.812C7.56 14 9.444 12.344 9.444 9.8C9.444 7.256 7.56 5.6 4.812 5.6H0.996V14ZM2.94 12.404V7.196H4.716C6.384 7.196 7.476 8.192 7.476 9.8C7.476 11.408 6.384 12.404 4.716 12.404H2.94ZM13.3821 7.448C12.3501 7.448 11.3061 7.724 10.5981 8.228L11.2701 9.536C11.7381 9.164 12.4461 8.936 13.1301 8.936C14.1381 8.936 14.6181 9.404 14.6181 10.208H13.1301C11.1621 10.208 10.3581 11 10.3581 12.14C10.3581 13.256 11.2581 14.096 12.7701 14.096C13.7181 14.096 14.3901 13.784 14.7381 13.196V14H16.4901V10.316C16.4901 8.36 15.3501 7.448 13.3821 7.448ZM13.2381 12.836C12.5781 12.836 12.1821 12.524 12.1821 12.056C12.1821 11.624 12.4581 11.3 13.3341 11.3H14.6181V11.96C14.4021 12.548 13.8621 12.836 13.2381 12.836ZM19.9723 8.396V7.544H18.1843V14H20.0563V10.952C20.0563 9.716 20.7403 9.152 21.7723 9.152C21.9163 9.152 22.0363 9.164 22.1923 9.176V7.448C21.1963 7.448 20.4283 7.772 19.9723 8.396ZM28.1174 14H30.3854L27.4574 10.28L30.1454 7.544H27.9134L25.1774 10.136V5.096H23.3054V14H25.1774V12.356L26.0774 11.468L28.1174 14ZM44.2257 14L44.2017 5.6H42.6057L39.5097 10.82L36.3657 5.6H34.7577V14H36.5817V9.068L39.0417 13.112H39.9177L42.3897 8.96L42.4017 14H44.2257ZM49.1587 14.096C51.2107 14.096 52.6987 12.716 52.6987 10.772C52.6987 8.828 51.2107 7.448 49.1587 7.448C47.1067 7.448 45.6067 8.828 45.6067 10.772C45.6067 12.716 47.1067 14.096 49.1587 14.096ZM49.1587 12.56C48.2227 12.56 47.5027 11.888 47.5027 10.772C47.5027 9.656 48.2227 8.984 49.1587 8.984C50.0947 8.984 50.8027 9.656 50.8027 10.772C50.8027 11.888 50.0947 12.56 49.1587 12.56ZM58.6539 5.096V8.228C58.1859 7.7 57.5139 7.448 56.7219 7.448C54.8979 7.448 53.4939 8.744 53.4939 10.772C53.4939 12.8 54.8979 14.096 56.7219 14.096C57.5859 14.096 58.2699 13.82 58.7379 13.256V14H60.5259V5.096H58.6539ZM57.0459 12.56C56.1099 12.56 55.3899 11.888 55.3899 10.772C55.3899 9.656 56.1099 8.984 57.0459 8.984C57.9699 8.984 58.6899 9.656 58.6899 10.772C58.6899 11.888 57.9699 12.56 57.0459 12.56ZM68.5825 10.796C68.5825 8.72 67.1185 7.448 65.2225 7.448C63.2545 7.448 61.7785 8.84 61.7785 10.772C61.7785 12.692 63.2305 14.096 65.4625 14.096C66.6265 14.096 67.5265 13.736 68.1265 13.052L67.1305 11.972C66.6865 12.392 66.1945 12.596 65.5105 12.596C64.5265 12.596 63.8425 12.104 63.6625 11.3H68.5465C68.5585 11.144 68.5825 10.94 68.5825 10.796ZM65.2345 8.864C66.0745 8.864 66.6865 9.392 66.8185 10.208H63.6385C63.7705 9.38 64.3825 8.864 65.2345 8.864Z" fill="#333333"/>
<rect x="75.413" y="0.413043" width="37.1739" height="18.1739" rx="9.08696" fill="#858484" stroke="#A7A7A7" stroke-width="0.826087"/>
<circle cx="84.5" cy="9.49999" r="7.84783" fill="white"/>
</svg>
